<svg width="16" height="11" viewBox="0 0 16 11" fill="none" xmlns="http://www.w3.org/2000/svg">
<path fill-rule="evenodd" clip-rule="evenodd" d="M7.99984 0.666626C4.6665 0.666626 1.81984 2.73996 0.666504 5.66663C1.81984 8.59329 4.6665 10.6666 7.99984 10.6666C11.3332 10.6666 14.1798 8.59329 15.3332 5.66663C14.1798 2.73996 11.3332 0.666626 7.99984 0.666626ZM7.99984 8.99996C6.15984 8.99996 4.6665 7.50663 4.6665 5.66663C4.6665 3.82663 6.15984 2.33329 7.99984 2.33329C9.83984 2.33329 11.3332 3.82663 11.3332 5.66663C11.3332 7.50663 9.83984 8.99996 7.99984 8.99996ZM5.99984 5.66663C5.99984 4.55996 6.89317 3.66663 7.99984 3.66663C9.1065 3.66663 9.99984 4.55996 9.99984 5.66663C9.99984 6.77329 9.1065 7.66663 7.99984 7.66663C6.89317 7.66663 5.99984 6.77329 5.99984 5.66663Z" fill="#9C9C9C"/>
</svg>
